<svg width="11" height="21" viewBox="0 0 11 21" fill="none" xmlns="http://www.w3.org/2000/svg">
<path d="M10.727 1.687C10.8172 1.59153 10.8877 1.47922 10.9346 1.35649C10.9814 1.23376 11.0036 1.10302 10.9998 0.971715C10.9961 0.840413 10.9666 0.711128 10.9129 0.591242C10.8592 0.471356 10.7825 0.363217 10.687 0.272999C10.5915 0.182781 10.4792 0.112251 10.3565 0.0654353C10.2338 0.0186198 10.103 -0.00356421 9.97172 0.000150139C9.84041 0.00386449 9.71113 0.0334043 9.59124 0.087083C9.47136 0.140762 9.36322 0.217528 9.273 0.312999L0.773 9.313C0.597464 9.49867 0.499658 9.74449 0.499658 10C0.499658 10.2555 0.597464 10.5013 0.773 10.687L9.273 19.688C9.36262 19.7856 9.47074 19.8643 9.59106 19.9198C9.71139 19.9752 9.84153 20.0062 9.97393 20.0109C10.1063 20.0156 10.2383 19.9939 10.3623 19.9472C10.4862 19.9004 10.5997 19.8295 10.696 19.7386C10.7923 19.6476 10.8696 19.5384 10.9234 19.4173C10.9771 19.2963 11.0063 19.1657 11.0092 19.0333C11.0121 18.9008 10.9886 18.7691 10.9402 18.6458C10.8917 18.5225 10.8193 18.4101 10.727 18.315L2.875 10L10.727 1.687Z" fill="white"/>
</svg>

























































