<svg width="232" height="152" viewBox="0 0 232 152" fill="none" xmlns="http://www.w3.org/2000/svg">
<path d="M231.66 74.38C231.32 73.62 223.14 55.49 204.83 37.18C187.87 20.22 158.7 0 116 0C73.3 0 44.13 20.22 27.17 37.18C8.86001 55.49 0.680013 73.62 0.340013 74.38C0.117342 74.8928 0.00244141 75.4459 0.00244141 76.005C0.00244141 76.5641 0.117342 77.1172 0.340013 77.63C0.680013 78.4 8.86001 96.52 27.17 114.83C44.17 131.83 73.31 152 116 152C158.69 152 187.87 131.79 204.83 114.83C223.14 96.52 231.32 78.4 231.66 77.63C231.883 77.1172 231.998 76.5641 231.998 76.005C231.998 75.4459 231.883 74.8928 231.66 74.38ZM198.96 109.38C175.89 132.38 147.96 144 115.96 144C83.96 144 56.07 132.35 32.96 109.38C23.1269 99.5735 14.8573 88.3157 8.44001 76C14.8692 63.6814 23.1525 52.4235 33 42.62C56.11 19.65 84 8 116 8C148 8 175.89 19.65 199 42.62C208.846 52.4245 217.129 63.6823 223.56 76C217.131 88.3184 208.847 99.5763 199 109.38H198.96ZM116 32C107.298 32 98.7907 34.5806 91.5549 39.4153C84.3192 44.2501 78.6796 51.122 75.3493 59.1619C72.0191 67.2019 71.1477 76.0488 72.8455 84.584C74.5432 93.1191 78.7338 100.959 84.8873 107.113C91.0408 113.266 98.8809 117.457 107.416 119.155C115.951 120.852 124.798 119.981 132.838 116.651C140.878 113.32 147.75 107.681 152.585 100.445C157.419 93.2093 160 84.7024 160 76C159.987 64.3345 155.347 53.1507 147.098 44.9019C138.849 36.6532 127.665 32.0132 116 32ZM116 112C108.88 112 101.92 109.889 95.9995 105.933C90.0793 101.977 85.4651 96.3547 82.7403 89.7766C80.0156 83.1985 79.3027 75.9601 80.6917 68.9767C82.0808 61.9934 85.5095 55.5788 90.5442 50.5442C95.5789 45.5095 101.993 42.0808 108.977 40.6917C115.96 39.3027 123.198 40.0156 129.777 42.7403C136.355 45.4651 141.977 50.0793 145.933 55.9995C149.889 61.9196 152 68.8799 152 76C152 85.5478 148.207 94.7045 141.456 101.456C134.705 108.207 125.548 112 116 112Z" fill="white"/>
</svg>
